<svg width="17" height="20" viewBox="0 0 17 20" fill="none" xmlns="http://www.w3.org/2000/svg">
<path d="M0.570312 4.39556V17.6316C0.570312 18.4219 1.21338 19.0625 2.00663 19.0625H5.01193C5.69895 19.0625 6.2559 18.5077 6.2559 17.8232C6.2559 17.1388 5.69895 16.5839 5.01193 16.5839H3.45735C3.25126 16.5839 3.08419 16.4175 3.08419 16.2122V8.86719H14.9988C15.789 8.86719 16.4297 8.22654 16.4297 7.43627V4.39556C16.4297 3.60528 15.7866 2.96464 14.9934 2.96464H13.6169V2.36842C13.6169 1.57815 12.9738 0.9375 12.1806 0.9375H11.9259C11.1326 0.9375 10.4896 1.57815 10.4896 2.36842V2.96464H6.35653V2.36842C6.35653 1.57815 5.71347 0.9375 4.92021 0.9375H4.63989C3.84663 0.9375 3.20357 1.57815 3.20357 2.36842V2.96464H2.00663C1.21338 2.96464 0.570312 3.60528 0.570312 4.39556Z" fill="white"/>
<path d="M15.6382 10.5962H13.7394C13.3022 10.5962 12.9479 10.9506 12.9479 11.3877V13.2866C12.9479 13.7237 13.3022 14.078 13.7394 14.078H15.6382C16.0753 14.078 16.4297 13.7237 16.4297 13.2866V11.3877C16.4297 10.9506 16.0753 10.5962 15.6382 10.5962Z" fill="white"/>
<path d="M16.4297 18.271V16.3722C16.4297 15.935 16.0753 15.5807 15.6382 15.5807H13.7394C13.3022 15.5807 12.9479 15.935 12.9479 16.3722V18.271C12.9479 18.7081 13.3022 19.0625 13.7394 19.0625H15.6382C16.0753 19.0625 16.4297 18.7081 16.4297 18.271Z" fill="white"/>
<path d="M8.73681 19.0625H10.6357C11.0728 19.0625 11.4271 18.7081 11.4271 18.271V16.3722C11.4271 15.9351 11.0728 15.5807 10.6357 15.5807H8.73681C8.29969 15.5807 7.94534 15.9351 7.94534 16.3722V18.271C7.94534 18.7081 8.29969 19.0625 8.73681 19.0625Z" fill="white"/>
<path d="M11.4271 12.3371C11.4271 13.2986 10.6477 14.078 9.68624 14.078C8.72476 14.078 7.94534 13.2986 7.94534 12.3371C7.94534 11.3756 8.72476 10.5962 9.68624 10.5962C10.6477 10.5962 11.4271 11.3756 11.4271 12.3371Z" fill="white"/>
</svg>
